HIERARCHY
ROOT Hips
{
	OFFSET 0.00000 0.00000 0.00000
	CHANNELS 6 Xposition Yposition Zposition Zrotation Yrotation Xrotation 
	JOINT LHipJoint
	{
		OFFSET 0 0 0
		CHANNELS 3 Zrotation Yrotation Xrotation
		JOINT LeftHip
		{
			OFFSET 1.26600 -1.82114 0.91038
			CHANNELS 3 Zrotation Yrotation Xrotation
			JOINT LeftKnee
			{
				OFFSET 2.50076 -6.87080 0.00000
				CHANNELS 3 Zrotation Yrotation Xrotation
				JOINT LeftAnkle
				{
					OFFSET 2.57364 -7.07102 0.00000
					CHANNELS 3 Zrotation Yrotation Xrotation
					JOINT LeftToe
					{
						OFFSET 0.13572 -0.37290 1.97004
						CHANNELS 3 Zrotation Yrotation Xrotation
						End Site
						{
							OFFSET 0.00000 -0.00000 1.01383
						}
					}
				}
			}
		}
	}
	JOINT RHipJoint
	{
		OFFSET 0 0 0
		CHANNELS 3 Zrotation Yrotation Xrotation
		JOINT RightHip
		{
			OFFSET -1.20803 -1.82114 0.91038
			CHANNELS 3 Zrotation Yrotation Xrotation
			JOINT RightKnee
			{
				OFFSET -2.54916 -7.00377 0.00000
				CHANNELS 3 Zrotation Yrotation Xrotation
				JOINT RightAnkle
				{
					OFFSET -2.56374 -7.04382 0.00000
					CHANNELS 3 Zrotation Yrotation Xrotation
					JOINT RightToe
					{
						OFFSET -0.23520 -0.64621 2.09921
						CHANNELS 3 Zrotation Yrotation Xrotation
						End Site
						{
							OFFSET -0.00000 -0.00000 1.10065
						}
					}
				}
			}
		}
	}
	JOINT lowerback
	{
		OFFSET 0 0 0
		CHANNELS 3 Zrotation Yrotation Xrotation
		JOINT Chest
		{
			OFFSET 0.05492 2.10797 -0.12074
			CHANNELS 3 Zrotation Yrotation Xrotation
			JOINT Chest2
			{
				OFFSET 0.04577 2.11592 -0.04483
				CHANNELS 3 Zrotation Yrotation Xrotation
				JOINT lowerneck
				{
					OFFSET 0 0 0
					CHANNELS 3 Zrotation Yrotation Xrotation
					JOINT Neck
					{
						OFFSET -0.10759 1.80167 0.15770
						CHANNELS 3 Zrotation Yrotation Xrotation
						JOINT Head
						{
							OFFSET 0.09237 1.77509 -0.40848
							CHANNELS 3 Zrotation Yrotation Xrotation
							End Site
							{
								OFFSET 0.03805 1.84093 -0.15754
							}
						}
					}
				}
				JOINT LeftCollar
				{
					OFFSET 0 0 0
					CHANNELS 3 Zrotation Yrotation Xrotation
					JOINT LeftShoulder
					{
						OFFSET 3.42372 1.09575 -0.28209
CHANNELS 3 Zrotation Xrotation Yrotation
						JOINT LeftElbow
						{
OFFSET 0 -4.956810 0.000000
CHANNELS 3 Zrotation Xrotation Yrotation
							JOINT LeftWrist
							{
OFFSET 0 -3.409150 0.000000
CHANNELS 3 Zrotation Xrotation Yrotation
								JOINT lhand
								{
									OFFSET 0 0 0
CHANNELS 3 Zrotation Xrotation Yrotation
									JOINT LFingers
									{
OFFSET 0 -0.616400 0.000000
CHANNELS 3 Zrotation Xrotation Yrotation
										End Site
										{
OFFSET 0 -0.496960 0.000000
										}
									}
								}
								JOINT LThumb
								{
OFFSET 0 0.000000 0.000000
CHANNELS 3 Zrotation Xrotation Yrotation
									End Site
									{
OFFSET 0 -0.504550 0.504550
									}
								}
							}
						}
					}
				}
				JOINT RightCollar
				{
					OFFSET 0 0 0
					CHANNELS 3 Zrotation Yrotation Xrotation
					JOINT RightShoulder
					{
						OFFSET -3.24731 1.15872 -0.32221
CHANNELS 3 Zrotation Xrotation Yrotation
						JOINT RightElbow
						{
OFFSET 0 -5.352000 0.000000
CHANNELS 3 Zrotation Xrotation Yrotation
							JOINT RightWrist
							{
OFFSET 0 -3.437210 -0.000000
CHANNELS 3 Zrotation Xrotation Yrotation
								JOINT rhand
								{
									OFFSET 0 0 0
CHANNELS 3 Zrotation Xrotation Yrotation
									JOINT RFingers
									{
OFFSET 0 -0.720090 0.000000
CHANNELS 3 Zrotation Xrotation Yrotation
										End Site
										{
OFFSET 0 -0.580560 0.000000
										}
									}
								}
								JOINT RThumb
								{
OFFSET 0 0.000000 0.000000
CHANNELS 3 Zrotation Xrotation Yrotation
									End Site
									{
OFFSET 0 -0.589420 0.589420
									}
								}
							}
						}
					}
				}
			}
		}
	}
}
MOTION
Frames: 9
Frame Time: 0.008333333333333333
10.978618 17.969136 11.192405 -497.190528 -273.672397 215.897334 0.000000 0.000000 0.000000 -17.845070 0.023386 16.296134 1.072932 6.583383 18.487275 -0.191865 -7.962324 0.955285 0.488956 -4.482366 -12.438056 0.000000 0.000000 0.000000 10.429292 5.705570 -74.690671 -23.787397 -19.652518 101.135638 -0.464552 10.550787 -13.269217 -0.481688 -4.387475 12.179998 -1.857738 -0.915051 19.837553 3.474487 -0.873482 6.733262 4.961665 -0.269175 -3.715769 -8.806012 -3.362663 -13.110990 6.061213 -3.498585 32.096783 3.472046 -1.486639 13.230979 0.000000 0.000000 0.000000 7.357211 -11.318408 -31.229340 21.988793 -32.964346 6.579782 22.566608 0.384232 -17.518122 0.000000 0.000000 0.000000 -7.125000 0.000000 0.000000 -5.284382 48.779371 0.493356 0.000000 0.000000 0.000000 -6.451917 -0.169507 14.293282 -22.646518 -33.699471 -6.941368 -20.981900 -17.295248 -12.360699 0.000000 0.000000 0.000000 7.125000 0.000000 0.000000 4.341545 16.795383 2.910444
11.822127 18.623134 11.425080 -495.777344 -273.331659 221.970297 0.000000 0.000000 0.000000 -16.365961 0.860934 21.225837 0.018742 0.796748 2.190164 0.907387 -1.108679 18.365874 0.516364 -4.605770 -12.787339 0.000000 0.000000 0.000000 12.192322 7.191318 -73.165960 -23.025816 -19.778861 98.878454 -0.958959 10.423785 -17.870123 -1.042720 -6.493921 18.224572 -0.238734 -1.144144 18.962427 3.157264 -0.978481 5.452734 3.713378 -0.330884 -4.670672 -7.967454 -2.940505 -14.303284 5.341892 -2.818590 32.249696 3.143144 -1.181951 13.459527 0.000000 0.000000 0.000000 5.991881 -8.320638 -27.908568 19.569890 -30.120331 5.313955 21.901652 -5.452228 -19.499978 0.000000 0.000000 0.000000 -7.125000 0.000000 0.000000 -6.458448 50.758556 0.920412 0.000000 0.000000 0.000000 -5.255854 -0.465040 12.983074 -19.229055 -29.701924 -5.144005 -21.798269 -16.225839 -13.021509 0.000000 0.000000 0.000000 7.125000 0.000000 0.000000 3.802047 16.013928 2.611321
12.621996 19.614352 11.674891 -514.256172 -272.834957 208.191579 0.000000 0.000000 0.000000 -16.212070 -1.878296 15.793246 0.000000 0.000000 0.000000 4.571149 13.464056 38.932913 0.003239 0.300266 0.825034 0.000000 0.000000 0.000000 13.215519 8.254623 -69.095177 -20.818379 -19.983123 92.393498 -1.305585 10.310768 -20.612336 -1.192638 -6.929596 19.507067 -0.369734 -1.625341 17.537534 3.188331 -1.714642 4.480456 3.958284 -0.715171 -4.902356 -8.587135 -2.169876 -15.276769 4.686867 -1.288986 31.569488 3.201126 -0.690466 13.253828 0.000000 0.000000 0.000000 4.057276 -4.735617 -25.341712 17.119017 -27.014397 4.141304 21.123585 -5.517426 -23.638266 0.000000 0.000000 0.000000 -7.125000 0.000000 0.000000 -8.667636 54.907101 2.121818 0.000000 0.000000 0.000000 -5.629448 -0.659857 13.576250 -17.463446 -27.464640 -4.298925 -20.741646 -13.987400 -12.773780 0.000000 0.000000 0.000000 7.125000 0.000000 0.000000 4.523156 16.379782 3.072383
13.310080 20.650373 11.937819 -541.205706 -272.509252 183.665534 0.000000 0.000000 0.000000 -16.884573 -4.589149 9.605024 0.205073 2.888290 7.969979 3.548763 11.670849 34.092463 0.079196 -1.785866 -4.914926 0.000000 0.000000 0.000000 14.561561 8.351574 -62.518231 -17.817194 -19.884810 83.605896 -1.492589 9.292699 -21.907874 -0.886785 -6.002511 16.791641 -0.245527 -1.045236 17.103833 2.101181 -1.053237 3.899329 2.586437 -0.408598 -5.361468 -6.943793 -2.254215 -14.833474 3.560402 -1.613703 30.335092 2.384312 -0.787333 12.637766 0.000000 0.000000 0.000000 6.243650 -3.160449 -30.315845 15.416606 -24.723145 3.398295 17.813311 0.433689 -23.177342 0.000000 0.000000 0.000000 -7.125000 0.000000 0.000000 -11.846514 53.835759 2.515917 0.000000 0.000000 0.000000 -4.696651 -0.229682 14.503818 -17.868559 -27.988515 -4.487454 -18.754930 -14.531616 -11.257581 0.000000 0.000000 0.000000 7.125000 0.000000 0.000000 5.872058 18.144916 3.771230
13.897856 21.667245 12.093307 -513.775800 -272.857900 211.285893 0.000000 0.000000 0.000000 -15.450859 -7.099851 -0.157773 2.480681 9.794496 28.320712 1.731824 8.213323 23.601035 0.036188 -0.582436 -1.603549 0.000000 0.000000 0.000000 18.715833 7.015218 -53.246866 -13.979315 -19.106078 72.139947 -1.376520 8.517715 -21.003177 -0.766116 -5.581051 15.575647 1.771906 -1.211929 16.574362 2.818921 -0.874291 4.068363 2.150329 -0.332892 -4.927629 -8.563373 -1.789584 -15.164762 2.807006 -0.148001 30.782728 2.606764 -0.421439 12.822471 0.000000 0.000000 0.000000 4.382335 -2.227545 -30.204760 15.253514 -24.498072 3.330346 13.962097 2.418922 -17.297975 0.000000 0.000000 0.000000 -7.125000 0.000000 0.000000 -13.346419 47.318706 0.776833 0.000000 0.000000 0.000000 -6.915458 -2.512853 16.788372 -17.440360 -27.434670 -4.288257 -20.876443 -15.097645 -11.413158 0.000000 0.000000 0.000000 7.125000 0.000000 0.000000 4.386097 17.809377 2.842702
14.409888 22.608465 12.235901 -504.070628 -273.057384 220.155140 0.000000 0.000000 0.000000 -14.699298 -6.222762 -7.082897 5.666816 14.097163 43.628781 1.305595 6.081449 20.451902 0.069801 -1.702867 -4.685219 0.000000 0.000000 0.000000 21.704917 4.321581 -43.338071 -9.881179 -17.342191 59.089948 -1.012235 8.535471 -18.059042 -0.892387 -6.019574 16.841655 2.237458 -0.870267 16.177599 3.343018 -0.324327 4.073163 2.323488 -0.061816 -4.722263 -9.094829 -1.275967 -15.043791 1.962753 1.165126 31.824373 2.599446 -0.009925 13.165628 0.000000 0.000000 0.000000 2.746368 -0.882250 -29.246464 16.005727 -25.528433 3.648416 14.327658 0.352688 -17.104954 0.000000 0.000000 0.000000 -7.125000 0.000000 0.000000 -12.945523 47.176045 0.706498 0.000000 0.000000 0.000000 -8.527414 -4.753528 17.163311 -17.338120 -27.301401 -4.241238 -22.892959 -16.651577 -11.927636 0.000000 0.000000 0.000000 7.125000 0.000000 0.000000 2.994833 17.076227 1.985972
14.879037 23.472336 12.305274 -501.667479 -273.749683 221.425351 0.000000 0.000000 0.000000 -13.701510 -3.661405 -12.000310 8.573649 16.524245 54.601773 0.729162 3.504420 15.323750 0.076261 0.216937 0.599280 0.000000 0.000000 0.000000 24.121272 -0.326711 -33.518101 -6.026751 -14.450610 45.082219 -0.566026 8.657066 -13.825613 -0.782040 -5.644922 15.757822 4.189644 -0.547781 15.494439 3.179671 0.363845 3.992829 0.906026 0.261651 -4.442545 -9.202138 -1.273336 -14.085301 1.669715 1.306683 32.154781 2.530583 0.029615 13.100944 0.000000 0.000000 0.000000 2.436436 0.561697 -29.682915 17.365600 -27.337111 4.253936 17.134910 -2.539603 -15.394485 0.000000 0.000000 0.000000 -7.125000 0.000000 0.000000 -9.859829 45.817087 0.201653 0.000000 0.000000 0.000000 -8.890327 -5.916530 16.437422 -18.477189 -28.763811 -4.776681 -25.370535 -18.635203 -11.139788 0.000000 0.000000 0.000000 7.125000 0.000000 0.000000 1.222404 17.686953 0.793269
15.283751 24.063869 12.352200 -504.307730 -274.245429 217.247199 0.000000 0.000000 0.000000 -13.757189 -0.925873 -14.313558 10.255993 17.551232 60.340469 0.074251 -3.120682 7.247237 0.767042 -5.589171 -15.597820 0.000000 0.000000 0.000000 25.097224 -4.680061 -24.033820 -3.162174 -10.952204 32.119742 -0.185403 8.916296 -9.260727 -1.178390 -6.889548 19.388496 5.858573 -0.120866 15.038059 2.889666 1.128709 4.214671 -0.477799 0.645800 -3.908834 -9.662598 -1.399724 -13.768202 1.796512 1.310020 32.791683 2.681676 0.008158 13.309786 0.000000 0.000000 0.000000 2.419247 0.509607 -27.878850 17.458638 -27.458438 4.296674 16.731796 -2.000935 -13.380742 0.000000 0.000000 0.000000 -7.125000 0.000000 0.000000 -9.726631 43.713926 -0.311828 0.000000 0.000000 0.000000 -9.591536 -6.498503 18.228038 -20.727058 -31.508189 -5.906718 -25.834434 -21.489048 -10.776305 0.000000 0.000000 0.000000 7.125000 0.000000 0.000000 0.875446 18.040402 0.561364
15.658820 24.360144 12.421281 -503.424501 -275.114731 217.849280 0.000000 0.000000 0.000000 -12.646523 0.697905 -16.819280 10.824827 17.848293 62.211497 -0.201645 -8.388168 0.197017 0.068698 -1.458878 -4.016937 0.000000 0.000000 0.000000 26.195926 -7.527868 -17.704238 -1.645564 -8.084334 22.970982 -0.054625 8.625125 -7.049864 -1.282561 -7.151316 20.175359 7.313071 0.144410 13.551922 2.727882 1.534916 3.819273 -1.511149 0.834517 -3.452548 -9.372465 -1.205679 -13.486335 1.291329 1.801720 33.527126 2.529145 0.207611 13.548902 0.000000 0.000000 0.000000 3.333453 1.052999 -25.991973 17.511319 -27.526879 4.320992 16.642986 -1.872328 -14.841937 0.000000 0.000000 0.000000 -7.125000 0.000000 0.000000 -10.164707 45.193879 0.048125 0.000000 0.000000 0.000000 -10.903667 -6.194689 22.819596 -24.079934 -35.248042 -7.752917 -24.688641 -23.059307 -11.625666 0.000000 0.000000 0.000000 7.125000 0.000000 0.000000 1.726975 17.224781 1.138682
